<!-- Generated by IcoMoon.io -->
<svg version="1.1" xmlns="http://www.w3.org/2000/svg" viewBox="0 0 32 32">
    <title>ban</title>
    <path d="M6.656 9.6c-1.312 1.856-1.984 4-1.984 6.4 0 6.144 4.928 11.2 11.2 11.2 2.528 0 4.8-0.8 6.784-2.272 0 0-0.128-0.128-0.128-0.128l-15.584-14.944c-0.128-0.128-0.288-0.128-0.288-0.256zM9.056 7.2c0.16 0 0.16 0.128 0.288 0.256l15.456 14.944c0 0 0.128 0.128 0.128 0.128 1.344-1.856 2.016-4 2.016-6.4 0-6.144-4.928-11.2-11.2-11.2-2.528-0.128-4.8 0.8-6.688 2.272zM15.744 30.656c-8.128 0-14.688-6.528-14.688-14.656s6.56-14.656 14.688-14.656 14.656 6.528 14.656 14.656-6.528 14.656-14.656 14.656z"></path>
</svg>
