<!-- Generated by IcoMoon.io -->
<svg version="1.1" xmlns="http://www.w3.org/2000/svg" viewBox="0 0 32 32">
    <title>barcode</title>
    <path d="M4 4v24h-1.344v-24h1.344zM5.344 4v24h-1.344v-24h1.344zM6.656 4v24h-1.184v-24h1.184zM8 4v24h-1.056v-24h1.056zM9.344 4v24h-1.088v-24h1.088zM10.656 4v24h-0.928v-24h0.928zM12 4v24h-0.928v-24h0.928zM13.344 4v24h-0.8v-24h0.8zM14.656 4v24h-0.8v-24h0.8zM16 4v24h-0.672v-24h0.672zM17.472 4v24h-0.672v-24h0.672zM18.816 4v24h-0.544v-24h0.544zM20.128 4v24h-0.512v-24h0.512zM21.472 4v24h-0.416v-24h0.416zM22.816 4v24h-0.416v-24h0.416zM24.128 4v24h-0.256v-24h0.256zM25.472 4v24h-0.256v-24h0.256zM26.816 4v24h-0.16v-24h0.16zM28.128 4v24h-0.128v-24h0.128zM29.472 4v24h-0.128v-24h0.128z"></path>
</svg>
