<!-- Generated by IcoMoon.io -->
<svg version="1.1" xmlns="http://www.w3.org/2000/svg" viewBox="0 0 32 32">
    <title>calendar</title>
    <path d="M29.344 7.872v20.384c0 1.6-1.344 2.816-2.816 2.816h-21.056c-1.472-0.128-2.816-1.344-2.816-2.944v-20.256c0-1.6 1.344-2.816 2.816-2.816h2.784v-3.072c0.16-0.384 0.416-0.64 0.8-0.64h2.4c0.416 0 0.672 0.256 0.672 0.64v3.072h7.616v-3.072c0-0.384 0.256-0.64 0.672-0.64h2.4c0.384 0 0.64 0.256 0.64 0.64v3.072h2.816c1.728 0 3.072 1.216 3.072 2.816zM26.528 27.872v-17.344h-21.056v17.216c0 0.128 0.128 0.384 0.384 0.384h20.288c0.128 0 0.384-0.128 0.384-0.256zM11.456 16.128h-2.4c-0.384 0-0.64-0.256-0.64-0.672v-2.4c0-0.384 0.256-0.672 0.64-0.672h2.4c0.416 0 0.672 0.288 0.672 0.672v2.272c0 0.416-0.256 0.8-0.672 0.8zM17.856 15.456c0 0.416-0.256 0.672-0.64 0.672h-2.4c-0.416 0-0.672-0.256-0.672-0.672v-2.4c0-0.384 0.256-0.672 0.672-0.672h2.4c0.384 0 0.64 0.288 0.64 0.672v2.4zM23.616 15.456c0 0.416-0.288 0.672-0.672 0.672h-2.4c-0.416 0-0.672-0.256-0.672-0.672v-2.4c0-0.384 0.256-0.672 0.672-0.672h2.4c0.384 0 0.672 0.288 0.672 0.672v2.4zM17.856 20.544c0 0.384-0.256 0.64-0.64 0.64h-2.4c-0.416 0-0.672-0.256-0.672-0.64v-2.272c0-0.416 0.256-0.672 0.672-0.672h2.4c0.384 0 0.64 0.256 0.64 0.672v2.272zM12.128 20.544c0 0.384-0.256 0.64-0.672 0.64h-2.4c-0.384 0-0.64-0.256-0.64-0.64v-2.272c0-0.416 0.256-0.672 0.64-0.672h2.4c0.416 0 0.672 0.256 0.672 0.672v2.272zM23.616 20.544c0 0.384-0.288 0.64-0.672 0.64h-2.4c-0.416 0-0.672-0.256-0.672-0.64v-2.272c0-0.416 0.256-0.672 0.672-0.672h2.4c0.384 0 0.672 0.256 0.672 0.672v2.272zM17.856 25.6c0 0.384-0.256 0.672-0.64 0.672h-2.4c-0.416 0-0.672-0.288-0.672-0.672v-2.272c0-0.384 0.256-0.672 0.672-0.672h2.4c0.384 0 0.64 0.288 0.64 0.672v2.272zM12.128 25.6c0 0.384-0.256 0.672-0.672 0.672h-2.4c-0.384 0-0.64-0.288-0.64-0.672v-2.272c0-0.384 0.256-0.672 0.64-0.672h2.4c0.416 0 0.672 0.288 0.672 0.672v2.272zM23.616 25.6c0 0.384-0.288 0.672-0.672 0.672h-2.4c-0.416 0-0.672-0.288-0.672-0.672v-2.272c0-0.384 0.256-0.672 0.672-0.672h2.4c0.384 0 0.672 0.288 0.672 0.672v2.272z"></path>
</svg>
