<!-- Generated by IcoMoon.io -->
<svg version="1.1" xmlns="http://www.w3.org/2000/svg" viewBox="0 0 32 32">
    <title>chain-broken</title>
    <path d="M16 11.456c-0.672 0.672-1.6 0.672-2.272 0s-0.672-1.6 0-2.272l4.544-4.512c2.528-2.528 6.656-2.528 9.184 0 2.56 2.528 2.56 6.656 0 9.184l-4.512 4.544c-0.672 0.672-1.6 0.672-2.272 0s-0.672-1.6 0-2.272l4.544-4.544c1.184-1.184 1.184-3.328 0-4.512s-3.36-1.216-4.544 0l-4.672 4.384zM16 20.544c0.672-0.672 1.6-0.672 2.272 0 0.672 0.64 0.672 1.6 0 2.24l-4.544 4.544c-2.528 2.528-6.656 2.528-9.184 0s-2.528-6.656 0-9.184l4.512-4.544c0.672-0.672 1.6-0.672 2.272 0 0.672 0.8 0.672 1.728 0.128 2.4l-4.512 4.544c-1.216 1.184-1.216 3.328 0 4.512s3.328 1.216 4.512 0l4.544-4.512zM20.544 11.456c0.672 0.672 0.672 1.6 0 2.272l-6.816 6.816c-0.672 0.64-1.6 0.64-2.272 0-0.64-0.672-0.64-1.6 0-2.272l6.816-6.816c0.672-0.672 1.728-0.672 2.272 0z"></path>
</svg>
