<!-- Generated by IcoMoon.io -->
<svg version="1.1" xmlns="http://www.w3.org/2000/svg" viewBox="0 0 32 32">
    <title>check-circle-o</title>
    <path d="M28.672 8.672c1.344 2.272 1.984 4.672 1.984 7.328s-0.64 5.056-1.984 7.328c-1.344 2.272-3.072 4-5.344 5.344s-4.672 1.984-7.328 1.984-5.056-0.64-7.328-1.984c-2.272-1.344-4-3.072-5.344-5.344-1.312-2.272-1.984-4.672-1.984-7.328s0.672-5.056 1.984-7.328 3.072-4 5.344-5.344 4.672-1.984 7.328-1.984 5.056 0.64 7.328 1.984 4 3.072 5.344 5.344zM12.544 19.456l-3.488-3.456c-0.512-0.544-1.44-0.544-2.112 0-0.544 0.544-0.544 1.472 0 2.144l4.512 4.512c0.544 0.544 1.472 0.544 2.016 0l11.456-11.072c0.544-0.512 0.544-1.44 0-2.112-0.512-0.544-1.472-0.544-2.112 0l-10.272 9.984z"></path>
</svg>
