<!-- Generated by IcoMoon.io -->
<svg version="1.1" xmlns="http://www.w3.org/2000/svg" viewBox="0 0 32 32">
    <title>chevron-double-left</title>
    <path d="M9.728 16l8.128 8c0.8 0.8 0.8 1.984 0 2.784-0.8 0.832-1.984 0.832-2.784 0l-9.6-9.44c-0.8-0.8-0.8-2.144 0-2.816l9.6-9.472c0.8-0.8 1.984-0.8 2.784 0s0.8 2.016 0 2.816l-8.128 8.128zM17.728 16l8.128 8c0.8 0.8 0.8 1.984 0 2.784s-1.984 0.832-2.784 0l-9.6-9.44c-0.8-0.8-0.8-2.144 0-2.816l9.6-9.472c0.8-0.8 1.984-0.8 2.784 0s0.8 2.016 0 2.816l-8.128 8.128z"></path>
</svg>
