<!-- Generated by IcoMoon.io -->
<svg version="1.1" xmlns="http://www.w3.org/2000/svg" viewBox="0 0 32 32">
    <title>chevron-double-right</title>
    <path d="M21.728 16l-8.128 8c-0.8 0.8-0.8 1.984 0 2.784 0.8 0.832 2.016 0.832 2.816 0l9.6-9.44c0.8-0.8 0.8-2.144 0-2.816l-9.6-9.472c-0.8-0.8-2.016-0.8-2.816 0s-0.8 2.016 0 2.816l8.128 8.128zM13.728 16l-8.128 8c-0.8 0.8-0.8 1.984 0 2.784s2.016 0.832 2.816 0l9.6-9.44c0.8-0.8 0.8-2.144 0-2.816l-9.76-9.344c-0.8-0.8-1.984-0.8-2.784 0s-0.672 2.016 0.128 2.816l8.128 8z"></path>
</svg>
