<!-- Generated by IcoMoon.io -->
<svg version="1.1" xmlns="http://www.w3.org/2000/svg" viewBox="0 0 32 32">
    <title>clock-o</title>
    <path d="M16 4.128c-6.528 0-11.872 5.344-11.872 11.872s5.344 11.872 11.872 11.872c6.528 0 11.872-5.344 11.872-11.872s-5.344-11.872-11.872-11.872zM16 1.344c8.128 0 14.656 6.528 14.656 14.656s-6.528 14.656-14.656 14.656-14.656-6.528-14.656-14.656 6.528-14.656 14.656-14.656zM19.2 20.544l-0.544 0.64c-0.384 0.544-1.184 0.672-1.856 0.288l-3.456-2.816v-7.2c0-0.672 0.512-1.312 1.312-1.312h0.8c0.672 0 1.344 0.512 1.344 1.312v5.6l2.144 1.728c0.512 0.416 0.672 1.216 0.256 1.76z"></path>
</svg>
