<!-- Generated by IcoMoon.io -->
<svg version="1.1" xmlns="http://www.w3.org/2000/svg" viewBox="0 0 32 32">
    <title>close-circle</title>
    <path d="M28.672 8.672c1.344 2.272 1.984 4.672 1.984 7.328s-0.64 5.056-1.984 7.328c-1.344 2.272-3.072 4-5.344 5.344s-4.672 1.984-7.328 1.984-5.056-0.64-7.328-1.984c-2.272-1.344-4-3.072-5.344-5.344-1.312-2.272-1.984-4.672-1.984-7.328s0.672-5.056 1.984-7.328 3.072-4 5.344-5.344 4.672-1.984 7.328-1.984 5.056 0.64 7.328 1.984 4 3.072 5.344 5.344zM18.016 16l4-4c0.512-0.544 0.512-1.472 0-2.016-0.544-0.64-1.472-0.64-2.016-0.128l-4 4-4-4c-1.472-1.312-3.456 0.8-2.144 2.144l4 4-4 4c-0.512 0.544-0.512 1.472 0 1.984 0.544 0.672 1.472 0.672 2.144 0.16l4-4 4 4c1.344 1.312 3.328-0.672 2.016-2.016l-4-4.128z"></path>
</svg>
