<!-- Generated by IcoMoon.io -->
<svg version="1.1" xmlns="http://www.w3.org/2000/svg" viewBox="0 0 32 32">
    <title>cloud-upload</title>
    <path d="M24.928 13.6c3.2 0.256 5.728 2.944 5.728 6.144 0 3.456-2.784 6.24-6.112 6.24h-15.872c-4 0-7.328-3.328-7.328-7.456 0-3.872 2.784-7.072 6.528-7.456 1.6-3.072 4.672-5.088 8.128-5.088 4.416 0 8.128 3.2 8.928 7.616zM13.216 16.672v5.856c0 0.416 0.384 0.8 0.8 0.8h4c0.384 0 0.8-0.384 0.8-0.8v-5.856h2.4c0.256 0 0.384-0.128 0.512-0.288 0.128-0.128 0.288-0.256 0.288-0.512 0-0.288-0.16-0.416-0.288-0.544l-5.184-5.184c-0.128-0.16-0.288-0.288-0.544-0.288s-0.384 0.128-0.544 0.288l-5.184 5.184c-0.128 0.128-0.256 0.256-0.256 0.544 0 0.256 0.128 0.384 0.256 0.512 0.128 0.16 0.256 0.288 0.544 0.288h2.4z"></path>
</svg>
