<!-- Generated by IcoMoon.io -->
<svg version="1.1" xmlns="http://www.w3.org/2000/svg" viewBox="0 0 32 32">
    <title>code-bold</title>
    <path d="M26.944 17.184l-4-4c-0.672-0.64-0.672-1.728 0-2.4 0.672-0.64 1.728-0.64 2.4 0l5.312 5.216c0.672 0.672 0.672 1.728 0 2.4l-5.312 5.472c-0.672 0.672-1.728 0.672-2.4 0s-0.672-1.728 0-2.4l4-4.288zM14.528 28.672c-0.256 0.928-1.184 1.472-2.112 1.184-0.96-0.256-1.472-1.184-1.216-2.112l6.272-23.2c0.256-0.96 1.184-1.472 2.144-1.216 0.928 0.256 1.44 1.216 1.184 2.144l-6.272 23.2zM9.216 21.472c0.64 0.672 0.64 1.728 0 2.4s-1.76 0.672-2.4 0l-5.344-5.472c-0.672-0.672-0.672-1.728 0-2.4l5.344-5.216c0.64-0.64 1.728-0.64 2.4 0 0.64 0.672 0.64 1.76 0 2.4l-4 4 4 4.288z"></path>
</svg>
