<!-- Generated by IcoMoon.io -->
<svg version="1.1" xmlns="http://www.w3.org/2000/svg" viewBox="0 0 32 32">
    <title>cog</title>
    <path d="M28.928 19.328l-2.4-1.344c0.288-1.312 0.288-2.656 0-3.84l2.4-1.344c0.288-0.256 0.416-0.672 0.416-0.928-0.672-2.016-1.728-3.744-3.072-5.344-0.256-0.256-0.544-0.256-0.8-0.128l-2.4 1.344c-1.056-0.8-2.144-1.472-3.456-2.016v-2.656c0-0.288-0.288-0.544-0.544-0.672-2.016-0.416-4.128-0.416-6.144 0-0.256 0.128-0.512 0.384-0.512 0.672v2.784c-1.216 0.416-2.4 1.088-3.36 2.016l-2.4-1.472c-0.256-0.128-0.64 0-0.928 0.128-1.312 1.472-2.4 3.328-3.072 5.344 0 0.256 0.16 0.672 0.416 0.8l2.4 1.312c-0.256 1.344-0.256 2.688 0 3.872l-2.4 1.344c-0.256 0.128-0.416 0.544-0.256 0.8 0.64 1.984 1.728 3.744 3.040 5.344 0.288 0.256 0.544 0.256 0.8 0.128l2.4-1.344c1.088 0.8 2.144 1.472 3.488 2.016v2.784c0 0.288 0.256 0.544 0.512 0.672 2.016 0.416 4.16 0.416 6.144 0 0.256-0.128 0.544-0.384 0.544-0.672v-2.784c1.184-0.416 2.4-1.088 3.456-2.016l2.4 1.344c0.256 0.128 0.672 0.128 0.8-0.128 1.344-1.472 2.4-3.36 3.072-5.344-0.128-0.128-0.256-0.544-0.544-0.672zM16 20.384c-2.528 0-4.544-1.984-4.544-4.512s2.016-4.544 4.544-4.544 4.544 2.016 4.544 4.544-2.016 4.512-4.544 4.512z"></path>
</svg>
