<!-- Generated by IcoMoon.io -->
<svg version="1.1" xmlns="http://www.w3.org/2000/svg" viewBox="0 0 32 32">
    <title>cogs</title>
    <path d="M24.8 12.672l-0.384 0.672c-0.16 0.256-0.416 0.384-0.672 0.256-0.544-0.256-1.088-0.544-1.472-0.928-0.256-0.128-0.256-0.544-0.128-0.672l0.384-0.672c-0.256-0.384-0.512-0.8-0.672-1.184h-0.8c-0.256 0-0.512-0.16-0.512-0.544-0.128-0.544-0.128-1.056 0-1.728 0-0.288 0.256-0.544 0.512-0.544h0.8c0.16-0.384 0.416-0.928 0.672-1.184l-0.384-0.672c-0.128-0.288-0.128-0.544 0.128-0.672 0.384-0.256 0.928-0.544 1.472-0.8 0.256 0 0.512 0 0.672 0.256l0.384 0.672c0.544-0.128 0.928-0.128 1.472 0l0.384-0.672c0.16-0.256 0.416-0.256 0.672-0.256 0.544 0.128 1.088 0.544 1.472 0.8 0.256 0.128 0.256 0.544 0.128 0.672l-0.384 0.672c0.384 0.512 0.512 0.928 0.8 1.312h0.8c0.256 0 0.512 0.128 0.512 0.544 0.16 0.544 0.16 1.056 0 1.728 0 0.256-0.256 0.544-0.512 0.544h-0.8c-0.128 0.384-0.416 0.928-0.672 1.184l0.256 0.544c0.128 0.256 0.128 0.544-0.128 0.672-0.384 0.384-0.928 0.672-1.472 0.8-0.256 0.128-0.512 0-0.672-0.288l-0.384-0.64c-0.544 0.256-0.928 0.256-1.472 0.128v0zM24.256 9.984c1.76 1.344 3.744-0.64 2.4-2.4-1.728-1.312-3.712 0.672-2.4 2.4v0zM19.072 16.928l1.6 0.8c0.384 0.256 0.672 0.8 0.544 1.344-0.416 1.056-1.216 2.112-2.016 2.912-0.384 0.416-0.928 0.544-1.344 0.288l-1.312-0.8c-0.8 0.672-1.6 1.056-2.528 1.472v1.44c0 0.544-0.416 0.96-0.96 1.088-1.056 0.128-2.24 0.128-3.456 0-0.544-0.128-0.928-0.544-0.928-1.088v-1.44c-0.928-0.288-1.728-0.8-2.528-1.472l-1.344 0.8c-0.384 0.256-1.056 0.128-1.344-0.288-0.8-0.928-1.44-1.856-1.984-2.912-0.128-0.544 0-1.088 0.544-1.344l1.44-0.8c-0.128-0.928-0.128-1.856 0-2.944l-1.6-0.64c-0.384-0.288-0.64-0.8-0.384-1.344 0.384-1.056 1.184-2.144 1.984-2.944 0.416-0.384 0.96-0.512 1.344-0.256l1.344 0.8c0.8-0.672 1.6-1.056 2.528-1.472v-1.6c0-0.544 0.384-0.928 0.928-1.056 1.056-0.128 2.144-0.128 3.328 0 0.544 0.128 0.928 0.512 0.928 1.056v1.472c0.96 0.256 1.76 0.8 2.56 1.472l1.312-0.8c0.416-0.288 1.088-0.128 1.344 0.256 0.8 0.928 1.472 1.856 1.856 2.944 0.128 0.512 0 1.056-0.384 1.312l-1.6 0.8c0.256 1.088 0.256 2.016 0.128 2.944zM13.6 17.984c2.656-3.456-1.344-7.456-4.8-4.8-2.656 3.488 1.344 7.488 4.8 4.8zM24.8 26.272l-0.384 0.672c-0.16 0.256-0.416 0.384-0.672 0.256-0.544-0.128-1.088-0.544-1.472-0.8-0.256-0.128-0.256-0.544-0.128-0.672l0.384-0.672c-0.256-0.384-0.512-0.8-0.672-1.184h-0.8c-0.256 0-0.512-0.128-0.512-0.544-0.128-0.544-0.128-1.056 0-1.728 0-0.256 0.256-0.544 0.512-0.544h0.8c0.16-0.384 0.416-0.928 0.672-1.184l-0.384-0.672c-0.128-0.256-0.128-0.544 0.128-0.672 0.384-0.384 0.928-0.672 1.472-0.8 0.256-0.128 0.512 0 0.672 0.256l0.384 0.672c0.544-0.128 0.928-0.128 1.472 0l0.384-0.672c0.16-0.256 0.416-0.384 0.672-0.256 0.544 0.128 1.088 0.544 1.472 0.8 0.256 0.128 0.256 0.544 0.128 0.672l-0.384 0.672c0.256 0.384 0.512 0.8 0.672 1.184h0.8c0.256 0 0.512 0.128 0.512 0.544 0.128 0.544 0.128 1.056 0 1.728 0 0.256-0.256 0.544-0.512 0.544h-0.672c-0.128 0.384-0.416 0.928-0.672 1.184l0.384 0.672c0.16 0.256 0.16 0.544-0.128 0.672-0.384 0.384-0.928 0.672-1.472 0.8-0.256 0.128-0.512 0-0.64-0.256l-0.416-0.672c-0.672 0-1.056 0-1.6 0zM24.256 23.584c1.76 1.344 3.744-0.64 2.4-2.4-1.728-1.312-3.712 0.672-2.4 2.4v0z"></path>
</svg>
