<!-- Generated by IcoMoon.io -->
<svg version="1.1" xmlns="http://www.w3.org/2000/svg" viewBox="0 0 32 32">
    <title>commenting-o</title>
    <path d="M9.6 13.344c-1.056 0-1.856 0.8-1.856 1.728s0.8 1.728 1.856 1.728 1.856-0.8 1.856-1.728c0-0.928-0.8-1.728-1.856-1.728zM16 13.344c-1.056 0-1.856 0.8-1.856 1.728s0.8 1.728 1.856 1.728 1.856-0.8 1.856-1.728c0-0.928-0.8-1.728-1.856-1.728zM22.4 13.344c-1.056 0-1.856 0.8-1.856 1.728s0.8 1.728 1.856 1.728c1.056 0 1.856-0.8 1.856-1.728s-0.8-1.728-1.856-1.728zM16 3.456c-8 0-14.656 5.216-14.656 11.744 0 2.656 1.184 5.056 3.072 7.072-0.8 2.272-2.688 4.128-2.688 4.128-0.384 0.256-0.384 0.928-0.256 1.344s0.672 0.8 1.184 0.8c3.488 0 6.272-1.472 8-2.56 1.6 0.544 3.488 0.8 5.344 0.8 8.128 0 14.656-5.184 14.656-11.712s-6.528-11.616-14.656-11.616zM16 24.128c-1.472 0-3.072-0.256-4.544-0.672l-1.312-0.384-1.088 0.8c-0.8 0.512-1.984 1.184-3.328 1.6 0.544-0.672 0.928-1.472 1.216-2.272l0.672-1.6-1.216-1.216c-1.056-1.056-2.272-2.912-2.272-5.184 0-4.928 5.344-8.928 11.872-8.928s11.872 4 11.872 8.928-5.344 8.928-11.872 8.928z"></path>
</svg>
