<!-- Generated by IcoMoon.io -->
<svg version="1.1" xmlns="http://www.w3.org/2000/svg" viewBox="0 0 32 32">
    <title>copy</title>
    <path d="M28 5.056l-2.944-2.912c-0.384-0.544-1.056-0.8-1.728-0.8h-9.6c-1.472 0-2.656 1.184-2.656 2.784v2.816h-4.416c-1.44-0.16-2.656 1.056-2.656 2.656v18.4c0 1.472 1.216 2.656 2.656 2.656h12.416c1.472 0 2.656-1.184 2.656-2.784v-2.816h4.416c1.472 0 2.656-1.184 2.656-2.784v-15.2c0-0.8-0.256-1.472-0.8-2.016zM18.816 27.872h-11.872c-0.128 0-0.288-0.128-0.288-0.416v-17.6c0-0.128 0.16-0.384 0.288-0.384h4.128v12.8c0 1.472 1.184 2.784 2.656 2.784h5.344v2.4c0 0.288-0.128 0.416-0.256 0.416zM25.856 22.4h-11.712c-0.128 0-0.288-0.128-0.288-0.416v-17.6c0-0.128 0.16-0.384 0.288-0.384h5.856v5.056c0 0.8 0.544 1.344 1.344 1.344h4.928v11.584c-0.128 0.288-0.256 0.416-0.416 0.416v0zM26.144 7.744h-3.488v-3.616h0.544c0.128 0 0.128 0 0.256 0.128l2.688 2.816c0 0 0.128 0.128 0.128 0.256v0.416h-0.128z"></path>
</svg>
