<!-- Generated by IcoMoon.io -->
<svg version="1.1" xmlns="http://www.w3.org/2000/svg" viewBox="0 0 32 32">
    <title>database</title>
    <path d="M8.8 13.472c2.016 0.384 4.256 0.672 6.528 0.672s4.544-0.288 6.528-0.672c2.016-0.416 3.616-1.088 4.8-1.888v2.56c0 0.64-0.512 1.312-1.44 1.856s-2.4 1.056-4.16 1.344-3.584 0.512-5.728 0.512-4-0.128-5.728-0.512-3.2-0.8-4.128-1.344-1.472-1.216-1.472-1.856v-2.56c1.216 0.8 2.816 1.472 4.8 1.888zM8.8 24.928c2.016 0.416 4.256 0.672 6.528 0.672s4.544-0.256 6.528-0.672 3.616-1.056 4.8-1.856v2.528c0 0.672-0.512 1.344-1.44 1.856-1.088 0.544-2.4 1.088-4.16 1.344-1.728 0.416-3.584 0.544-5.728 0.544s-4-0.128-5.728-0.544c-1.728-0.384-3.2-0.8-4.128-1.344-0.928-0.672-1.472-1.184-1.472-1.984v-2.528c1.216 0.928 2.816 1.44 4.8 1.984zM8.8 19.2c2.016 0.384 4.256 0.672 6.528 0.672s4.544-0.288 6.528-0.672c2.016-0.416 3.616-1.056 4.8-1.856v2.528c0 0.672-0.512 1.312-1.44 1.856-1.088 0.544-2.4 1.056-4.16 1.344-1.728 0.384-3.584 0.512-5.728 0.512s-4-0.128-5.728-0.512c-1.728-0.416-3.2-0.8-4.128-1.344-0.928-0.672-1.472-1.184-1.472-1.856v-2.528c1.216 0.8 2.816 1.44 4.8 1.856zM9.728 3.2c1.728-0.416 3.616-0.544 5.728-0.544s4 0.128 5.76 0.544 3.2 0.8 4.128 1.344 1.472 1.184 1.472 1.856v1.856c0 0.672-0.544 1.344-1.472 1.888-1.088 0.512-2.4 1.056-4.128 1.312s-3.616 0.544-5.76 0.544-4 0-5.728-0.256-3.2-0.8-4.128-1.344c-1.056-0.672-1.6-1.344-1.6-2.016v-1.856c0-0.672 0.544-1.344 1.472-1.856s2.528-1.216 4.256-1.472z"></path>
</svg>
