<!-- Generated by IcoMoon.io -->
<svg version="1.1" xmlns="http://www.w3.org/2000/svg" viewBox="0 0 32 32">
    <title>dot-circle-o</title>
    <path d="M16 30.656c-8.128 0-14.656-6.528-14.656-14.656s6.528-14.656 14.656-14.656 14.656 6.528 14.656 14.656-6.528 14.656-14.656 14.656zM16 27.2c6.144 0 11.2-4.928 11.2-11.2s-5.056-11.2-11.2-11.2-11.2 5.056-11.2 11.2 5.056 11.2 11.2 11.2zM20 13.6c0.416 0.672 0.672 1.472 0.672 2.4s-0.256 1.6-0.672 2.4c-0.384 0.672-0.928 1.344-1.728 1.728-0.672 0.416-1.472 0.672-2.4 0.672s-1.6-0.256-2.4-0.672c-0.672-0.384-1.344-0.928-1.728-1.728-0.416-0.672-0.672-1.472-0.672-2.4s0.256-1.6 0.672-2.4c0.384-0.672 0.928-1.344 1.728-1.728 0.672-0.416 1.472-0.672 2.4-0.672s1.6 0.256 2.4 0.672c0.8 0.512 1.344 1.056 1.728 1.728z"></path>
</svg>
