<!-- Generated by IcoMoon.io -->
<svg version="1.1" xmlns="http://www.w3.org/2000/svg" viewBox="0 0 32 32">
    <title>envelope</title>
    <path d="M30.144 12.256c0.256-0.128 0.512 0 0.512 0.288v11.712c0 1.472-1.184 2.816-2.784 2.816h-23.744c-1.472 0-2.784-1.216-2.784-2.816v-11.584c0-0.288 0.256-0.416 0.512-0.288 1.344 0.96 2.944 2.272 8.8 6.56 1.216 0.928 3.2 2.784 5.344 2.656 2.016 0 4.128-1.856 5.344-2.656 5.728-4.416 7.456-5.6 8.8-6.688zM16 19.744c1.344 0 3.2-1.76 4.256-2.4 7.616-5.472 8.16-6.016 10.016-7.36 0.256-0.256 0.384-0.64 0.384-1.056v-1.056c0-1.472-1.184-2.816-2.784-2.816h-23.744c-1.6 0-2.784 1.216-2.784 2.816v1.056c0 0.416 0.128 0.8 0.512 1.056 1.76 1.344 2.272 1.888 10.016 7.36 0.928 0.64 2.784 2.4 4.128 2.4z"></path>
</svg>
