<!-- Generated by IcoMoon.io -->
<svg version="1.1" xmlns="http://www.w3.org/2000/svg" viewBox="0 0 32 32">
    <title>external-link-square</title>
    <path d="M4 1.344h24c1.472 0 2.656 1.184 2.656 2.656v24c0 1.472-1.184 2.656-2.656 2.656h-24c-1.472 0-2.656-1.184-2.656-2.656v-24c0-1.472 1.184-2.656 2.656-2.656zM18.656 10.528l-12.64 12.672c-0.8 0.8-0.8 1.984 0 2.784s1.984 0.8 2.784 0l12.672-12.64 2.528 2.528c0.672 0.672 1.856 0.128 2.016-0.8l0.128-8c0-0.672-0.544-1.088-1.088-1.088l-8 0.16c-1.056 0-1.44 1.184-0.8 1.984l2.4 2.4z"></path>
</svg>
