<!-- Generated by IcoMoon.io -->
<svg version="1.1" xmlns="http://www.w3.org/2000/svg" viewBox="0 0 32 32">
    <title>eyedropper</title>
    <path d="M24.544 2.528c1.312 0 2.4 0.416 3.328 1.344s1.344 1.984 1.344 3.328-0.288 2.528-1.216 3.456l-3.328 3.328 1.6 1.6c0.128 0.16 0.128 0.288 0.128 0.416s0 0.256-0.128 0.384l-3.072 3.072c-0.128 0.128-0.256 0.128-0.384 0.128s-0.288 0-0.416-0.128l-1.6-1.6-9.056 8.8c-0.416 0.416-0.8 0.544-1.344 0.544h-2.944l-3.584 1.856c-0.128 0-0.256 0-0.256 0l-0.672-0.64c-0.288-0.16-0.288-0.288-0.128-0.416l1.856-3.616v-3.040c0-0.544 0.128-0.96 0.544-1.344l8.928-8.928-1.6-1.6c-0.128-0.128-0.128-0.128-0.128-0.288 0-0.128 0-0.256 0.128-0.384l3.072-3.072c0.128-0.128 0.256-0.128 0.384-0.128s0.256 0 0.416 0.128l1.6 1.6 3.328-3.328c0.8-1.056 1.856-1.472 3.2-1.472zM10.4 24.256l8.544-8.512-2.944-2.816-8.384 8.416c-0.16 0.128-0.16 0.256-0.16 0.384v2.4c0 0.128 0.16 0.256 0.288 0.256h2.528c0 0 0 0 0.128-0.128z"></path>
</svg>
