<!-- Generated by IcoMoon.io -->
<svg version="1.1" xmlns="http://www.w3.org/2000/svg" viewBox="0 0 32 32">
    <title>filter</title>
    <path d="M3.072 11.456c-0.928 0-1.728-0.8-1.728-1.728s0.8-1.728 1.728-1.728h25.984c0.8 0 1.6 0.8 1.6 1.728s-0.8 1.728-1.728 1.728h-25.856zM6.944 18.144c-0.928 0-1.728-0.8-1.728-1.76 0-0.928 0.8-1.728 1.728-1.728h18.112c0.96 0 1.76 0.8 1.76 1.728 0 0.96-0.8 1.76-1.76 1.76h-18.112zM10.816 24.8c-0.96 0-1.76-0.8-1.76-1.728s0.8-1.728 1.76-1.728h10.4c0.928 0 1.728 0.8 1.728 1.728s-0.8 1.728-1.728 1.728h-10.4z"></path>
</svg>
