<!-- Generated by IcoMoon.io -->
<svg version="1.1" xmlns="http://www.w3.org/2000/svg" viewBox="0 0 32 32">
    <title>flash</title>
    <path d="M4.8 16.928l6.016-14.272c0.128-0.384 0.512-0.672 0.928-0.672l9.728 0.16c0.544 0 1.056 0.512 1.056 1.056 0 0.128 0 0.256-0.128 0.384l-2.656 6.144h6.912c0.544 0 1.088 0.544 1.088 1.056 0 0.288-0.128 0.544-0.288 0.672l-17.184 18.272c-0.416 0.416-1.056 0.416-1.472 0-0.256-0.256-0.384-0.672-0.256-1.056l2.912-10.272h-5.6c-0.512 0-1.056-0.544-1.056-1.056 0-0.16 0-0.288 0-0.416zM8.416 15.584h6.784l-1.984 6.944 9.44-10.144h-7.040l3.2-7.584h-5.888l-4.512 10.784z"></path>
</svg>
