<!-- Generated by IcoMoon.io -->
<svg version="1.1" xmlns="http://www.w3.org/2000/svg" viewBox="0 0 32 32">
    <title>flow</title>
    <path d="M17.344 14.656h7.584c1.344 0 2.4 1.088 2.4 2.4v4h3.616c0.672 0 1.056 0.544 1.056 1.088v7.456c0 0.672-0.544 1.056-1.056 1.056h-9.728c-0.672 0-1.088-0.512-1.088-1.056v-7.456c0-0.672 0.544-1.088 1.088-1.088h3.456v-3.712h-17.344v3.712h3.488c0.64 0 1.056 0.544 1.056 1.088v7.456c0.128 0.544-0.416 1.056-1.056 1.056h-9.76c-0.512 0-1.056-0.512-1.056-1.056v-7.456c0-0.672 0.544-1.088 1.056-1.088h3.616v-4c0-1.312 1.056-2.4 2.4-2.4h7.584v-3.712h-3.584c-0.672 0-1.056-0.544-1.056-1.088v-7.456c0-0.544 0.512-1.056 1.056-1.056h9.728c0.672 0 1.056 0.512 1.056 1.056v7.456c0 0.672-0.512 1.088-1.056 1.088h-3.456v3.712z"></path>
</svg>
