<!-- Generated by IcoMoon.io -->
<svg version="1.1" xmlns="http://www.w3.org/2000/svg" width="28" height="32" viewBox="0 0 28 32">
    <title>font-awesome</title>
    <path d="M24.864 1.984h-21.728c-1.728 0-3.136 1.44-3.136 3.136v21.728c0 1.728 1.408 3.168 3.136 3.168h21.728c1.728 0 3.136-1.44 3.136-3.168v-21.728c0-1.696-1.408-3.136-3.136-3.136zM22.016 19.776c0 0.256-0.224 0.352-0.48 0.48-1.056 0.448-2.144 0.864-3.36 0.864-1.696 0-2.464-1.056-4.48-1.056-1.472 0-2.976 0.544-4.224 1.088-0.064 0.032-0.16 0.032-0.224 0.064v2.848c0 0.096 0 0.224-0.032 0.288v0.096c-0.16 0.512-0.64 0.896-1.184 0.896-0.704 0-1.28-0.576-1.28-1.28v-13.664c-0.48-0.384-0.832-0.96-0.832-1.632 0-1.184 0.96-2.112 2.112-2.112s2.080 0.928 2.080 2.112c0 0.672-0.288 1.248-0.8 1.632v1.152c0.096-0.032 0.224-0.064 0.32-0.16 1.152-0.48 2.56-0.896 3.84-0.896 1.44 0 2.56 0.384 3.808 0.864 0.256 0.128 0.544 0.16 0.832 0.16 1.408 0 2.976-1.024 3.36-1.024 0.288 0 0.576 0.224 0.576 0.512v8.768z"></path>
</svg>
