<!-- Generated by IcoMoon.io -->
<svg version="1.1" xmlns="http://www.w3.org/2000/svg" viewBox="0 0 32 32">
    <title>font</title>
    <path d="M14.528 10.656l-2.784 7.328c0.384 0 1.056 0 2.272 0 1.056 0 1.984 0 2.656 0 0.256 0 0.544 0 0.928 0-1.056-2.656-1.984-5.184-3.072-7.328zM2.656 28.8v-1.344c0.288-0.128 0.544-0.128 0.96-0.256s0.64-0.128 0.928-0.128c0.256 0 0.512-0.128 0.8-0.288 0.256-0.128 0.512-0.256 0.672-0.512 0.256-0.288 0.384-0.544 0.512-0.8l3.872-10.144 4.544-11.872h2.112c0.16 0.288 0.288 0.416 0.288 0.544l3.328 7.872c0.384 0.8 0.928 2.272 1.728 4.256s1.472 3.456 1.856 4.544c0.16 0.384 0.544 1.184 0.96 2.4s0.8 2.112 1.184 2.784c0.256 0.544 0.416 0.8 0.544 0.928 0.256 0.16 0.672 0.288 1.472 0.544 0.8 0.128 1.184 0.288 1.312 0.416 0 0.384 0.128 0.672 0.128 0.928 0 0 0 0.128 0 0.256s0 0.128 0 0.288c-0.64 0-1.728 0-3.040-0.16-1.344-0.128-2.4-0.128-3.072-0.128-0.8 0-2.016 0-3.488 0.128s-2.528 0.16-2.912 0.16c0-0.544 0-0.96 0-1.344l2.112-0.416c0 0 0.16 0 0.288 0s0.256 0 0.256 0c0 0 0.128 0 0.256-0.128 0.16 0 0.16-0.128 0.288-0.128s0.128-0.128 0.128-0.128c0.128 0 0.128-0.128 0.128-0.128s0-0.16 0-0.288c0-0.128-0.128-0.672-0.544-1.6-0.384-0.928-0.64-1.856-1.184-2.912-0.416-1.088-0.672-1.6-0.672-1.6h-7.328c-0.256 0.64-0.672 1.728-1.216 3.2s-0.8 2.4-0.8 2.656c0 0.256 0.16 0.384 0.288 0.672 0-0.416 0.256-0.288 0.512-0.128 0.288 0.128 0.544 0.128 0.8 0.256 0.288 0 0.544 0.128 0.96 0.128s0.64 0 0.64 0c0 0.288 0 0.544 0 0.928 0 0.16 0 0.288 0 0.416-0.64 0-1.6 0-2.784-0.128-1.344-0.128-2.272-0.128-2.816-0.128-0.128 0-0.256 0-0.384 0s-0.256 0-0.416 0c-0.928 0.256-1.984 0.384-3.2 0.384z"></path>
</svg>
