<!-- Generated by IcoMoon.io -->
<svg version="1.1" xmlns="http://www.w3.org/2000/svg" viewBox="0 0 32 32">
    <title>heart-o</title>
    <path d="M27.616 5.856c-3.36-2.784-8.416-2.4-11.616 0.8-3.2-3.2-8.256-3.584-11.584-0.8-4.288 3.616-3.744 9.344-0.672 12.416l9.984 9.984c0.544 0.544 1.344 0.96 2.144 0.96s1.6-0.288 2.144-0.96l9.984-9.984c3.328-3.072 3.872-8.928-0.384-12.416zM26.272 16.384l-10.016 10.016c-0.128 0.128-0.256 0.128-0.384 0l-10.016-10.016c-2.112-2.112-2.528-5.984 0.416-8.512 2.272-1.888 5.6-1.6 7.872 0.512l1.856 2.144 2.016-1.984c2.112-2.144 5.6-2.4 7.84-0.544 2.944 2.272 2.4 6.272 0.416 8.384v0z"></path>
</svg>
