<!-- Generated by IcoMoon.io -->
<svg version="1.1" xmlns="http://www.w3.org/2000/svg" viewBox="0 0 32 32">
    <title>help</title>
    <path d="M3.328 8.672c1.344-2.272 3.072-4 5.344-5.344s4.672-1.984 7.328-1.984 5.056 0.64 7.328 1.984 4 3.072 5.344 5.344c1.344 2.272 1.984 4.672 1.984 7.328s-0.64 5.056-1.984 7.328c-1.344 2.272-3.072 4-5.344 5.344s-4.672 1.984-7.328 1.984-5.056-0.64-7.328-1.984c-2.272-1.344-4-3.072-5.344-5.344-1.312-2.272-1.984-4.672-1.984-7.328s0.672-5.056 1.984-7.328zM14.528 18.944h2.688v-0.672c0.128-0.672 0.384-1.344 0.928-1.728l0.8-0.8c0.672-0.672 1.056-1.216 1.312-1.76s0.416-1.056 0.416-1.728c0-1.312-0.416-2.272-1.216-3.072s-1.984-1.056-3.456-1.056c-1.472 0-2.656 0.416-3.456 1.056s-1.344 1.76-1.344 3.072h3.072c0-0.512 0.128-0.928 0.544-1.312s0.8-0.288 1.312-0.288c1.088 0 1.6 0.544 1.6 1.728 0 0.416-0.128 0.8-0.256 1.088s-0.672 0.8-1.216 1.312c-0.64 0.544-1.056 1.088-1.312 1.76s-0.416 1.44-0.416 2.4zM14.144 22.144c0 0.384 0.128 0.8 0.384 1.184 0.288 0.256 0.672 0.416 1.216 0.416s0.928-0.16 1.184-0.416c0.288-0.256 0.416-0.672 0.416-1.184 0-0.416-0.128-0.8-0.544-1.216-0.256-0.256-0.672-0.384-1.184-0.384s-0.96 0.128-1.216 0.384c0 0.416-0.256 0.8-0.256 1.216z"></path>
</svg>
