<!-- Generated by IcoMoon.io -->
<svg version="1.1" xmlns="http://www.w3.org/2000/svg" viewBox="0 0 32 32">
    <title>help-o</title>
    <path d="M16 30.816c-8.128 0-14.784-6.688-14.784-14.816s6.656-14.816 14.784-14.816 14.816 6.688 14.816 14.816-6.688 14.816-14.816 14.816zM16 27.872c6.528 0 11.872-5.344 11.872-11.872s-5.344-11.872-11.872-11.872-11.872 5.344-11.872 11.872 5.344 11.872 11.872 11.872zM14.528 18.944c0-0.96 0.128-1.76 0.416-2.272s0.672-1.216 1.312-1.728c0.672-0.544 1.088-1.088 1.216-1.344s0.256-0.672 0.256-1.056c0-1.216-0.512-1.76-1.6-1.76-0.512 0-0.928 0.16-1.184 0.544s-0.544 0.8-0.544 1.344h-3.072c0-1.344 0.416-2.4 1.344-3.072s1.984-1.056 3.456-1.056c1.472 0 2.688 0.384 3.488 1.056s1.184 1.728 1.184 3.072c0 0.512-0.128 1.184-0.384 1.728s-0.672 1.056-1.344 1.728l-0.8 0.8c-0.544 0.544-0.8 1.056-0.928 1.728v0.672h-2.816zM14.144 22.144c0-0.416 0.128-0.8 0.512-1.216 0.288-0.256 0.672-0.384 1.216-0.384s0.928 0.128 1.184 0.384c0.288 0.256 0.544 0.672 0.544 1.216 0 0.384-0.128 0.8-0.384 1.184-0.288 0.256-0.672 0.416-1.216 0.416s-0.928-0.16-1.184-0.416c-0.544-0.256-0.672-0.672-0.672-1.184z"></path>
</svg>
