<!-- Generated by IcoMoon.io -->
<svg version="1.1" xmlns="http://www.w3.org/2000/svg" viewBox="0 0 32 32">
    <title>history</title>
    <path d="M6.4 6.944c0.8-0.96 1.728-1.6 2.816-2.144 6.112-3.616 14.112-1.472 17.6 4.672s1.44 14.112-4.672 17.6-14.144 1.6-17.728-4.672c-0.544-0.928-0.288-2.016 0.64-2.528 0.96-0.544 2.016-0.288 2.56 0.672 2.528 4.384 8.128 5.856 12.64 3.328s5.888-8.128 3.36-12.672-8.16-5.728-12.672-3.2c-0.672 0.384-1.344 0.928-1.888 1.472l2.144 2.112c0 0 0.128 0.16 0.128 0.16 0 0.128-0.128 0.256-0.256 0.256l-7.456 0.544c0 0 0 0 0 0-0.16 0-0.288-0.16-0.288-0.288l0.416-7.328c0 0 0-0.128 0.128-0.128 0.128-0.128 0.256-0.128 0.384 0l2.144 2.144zM18.656 20.384c-0.384 0.544-1.184 0.672-1.856 0.288l-3.456-2.816v-7.2c0-0.672 0.512-1.312 1.312-1.312h0.8c0.672 0 1.344 0.512 1.344 1.312v5.6l2.144 1.728c0.512 0.416 0.672 1.216 0.256 1.888l-0.544 0.512z"></path>
</svg>
