<!-- Generated by IcoMoon.io -->
<svg version="1.1" xmlns="http://www.w3.org/2000/svg" viewBox="0 0 32 32">
    <title>image-bold</title>
    <path d="M27.872 4h-23.744c-1.6 0-2.784 1.184-2.784 2.784v17.888c0 1.472 1.184 2.784 2.784 2.784h23.872c1.472 0 2.816-1.184 2.816-2.784v-17.888c-0.16-1.6-1.344-2.784-2.944-2.784zM4.416 24.544c-0.16 0-0.416-0.16-0.416-0.416v-17.056c0-0.128 0.128-0.416 0.416-0.416h23.2c0.128 0 0.384 0.128 0.384 0.416v17.184c0 0.128-0.128 0.416-0.384 0.416h-23.2zM8.544 9.056c-1.216 0-2.272 1.088-2.272 2.272s1.056 2.272 2.272 2.272 2.272-1.056 2.272-2.272-0.96-2.272-2.272-2.272zM6.272 22.4h19.456v-6.272l-5.312-5.344c-0.288-0.256-0.8-0.256-1.088 0l-7.328 7.36-2.4-2.4c-0.256-0.288-0.8-0.288-1.056 0l-2.4 2.4v4.256z"></path>
</svg>
