<!-- Generated by IcoMoon.io -->
<svg version="1.1" xmlns="http://www.w3.org/2000/svg" viewBox="0 0 32 32">
    <title>library-open</title>
    <path d="M30.656 17.6c0 0.256-0.128 0.672-0.512 1.056l-5.216 6.144c-0.384 0.544-1.056 0.928-1.856 1.344s-1.6 0.512-2.272 0.512h-16.928c-0.416 0-0.672-0.128-0.928-0.256s-0.416-0.416-0.416-0.672c0-0.256 0.128-0.672 0.544-1.056l5.184-6.144c0.416-0.544 1.088-0.928 1.888-1.344s1.6-0.512 2.272-0.512h16.928c0.384 0 0.672 0.128 0.928 0.256s0.384 0.256 0.384 0.672zM25.344 12.128v2.528h-13.088c-0.928 0-1.984 0.288-3.040 0.8s-1.888 1.088-2.56 1.888l-5.184 6.112-0.128 0.128c0 0 0-0.128 0-0.128s0-0.128 0-0.128v-15.2c0-0.928 0.384-1.728 1.056-2.528s1.472-1.056 2.528-1.056h5.088c0.928 0 1.728 0.384 2.528 1.056s0.8 1.6 0.8 2.528v0.544h8.512c0.96 0 1.76 0.384 2.56 1.056s0.928 1.472 0.928 2.4z"></path>
</svg>
