<!-- Generated by IcoMoon.io -->
<svg version="1.1" xmlns="http://www.w3.org/2000/svg" viewBox="0 0 32 32">
    <title>lightbox</title>
    <path d="M27.872 1.344h-18.272c-1.6 0-2.784 1.184-2.784 2.784v2.816h-2.688c-1.6-0.16-2.784 1.056-2.784 2.656v18.4c0 1.472 1.184 2.656 2.784 2.656h18.4c1.472 0 2.816-1.184 2.816-2.784v-2.816h2.784c1.472 0 2.816-1.184 2.816-2.784v-18.144c-0.288-1.6-1.472-2.784-3.072-2.784zM22.4 27.872h-18.272v-11.872h18.4v11.872zM27.872 22.4h-2.816v-12.8c0-1.472-1.184-2.816-2.784-2.816h-12.672v-2.656h18.4v18.272z"></path>
</svg>
