<!-- Generated by IcoMoon.io -->
<svg version="1.1" xmlns="http://www.w3.org/2000/svg" viewBox="0 0 32 32">
    <title>link</title>
    <path d="M15.328 16.8c1.216 1.184 3.488 1.184 4.928-0.256l3.744-3.872c1.472-1.472 1.6-3.616 0.256-4.928s-3.328-1.216-4.8 0.256l-1.6 1.6c-0.64 0.672-1.728 0.672-2.4 0-0.64-0.672-0.64-1.728 0-2.4l1.6-1.6c2.688-2.816 7.072-2.944 9.76-0.256s2.528 7.040-0.288 9.856l-3.872 3.744c-2.784 2.784-7.2 2.912-9.856 0.256-0.672-0.672-0.672-1.728 0-2.4s1.856-0.672 2.528 0zM16.8 15.328c-1.184-1.184-3.456-1.184-4.928 0.256l-3.872 3.872c-1.472 1.472-1.6 3.616-0.256 4.928 1.184 1.216 3.456 1.216 4.928-0.256l1.728-1.728c0.672-0.672 1.728-0.672 2.4 0s0.672 1.728 0 2.4l-1.728 1.728c-2.656 2.688-7.072 2.944-9.728 0.256s-2.528-7.040 0.256-9.856l3.872-3.872c2.784-2.784 7.2-2.912 9.856-0.256 0.672 0.672 0.672 1.728 0 2.4-0.8 0.8-1.856 0.8-2.528 0.128z"></path>
</svg>
