<!-- Generated by IcoMoon.io -->
<svg version="1.1" xmlns="http://www.w3.org/2000/svg" viewBox="0 0 32 32">
    <title>meetup</title>
    <path d="M18.816 1.44c5.216-1.504 10.368 2.4 10.272 7.776 3.008 1.248 3.84 5.248 1.6 7.616 1.792 3.424 0.832 7.744-2.368 9.984-1.248 0.864-2.656 1.344-4.128 1.408-1.216 3.424-5.408 4.704-8.32 2.592-3.2 2.112-7.456 1.28-9.664-1.92-0.672-0.992-1.088-2.112-1.184-3.296-4.864-1.184-6.688-7.328-3.264-11.008-1.824-3.68 0.32-8.192 4.32-8.992 2.176-5.056 8.416-7.2 12.736-4.16zM7.136 6.4l-0.128 0.352-0.352 0.032c-3.52 0.512-5.376 4.512-3.52 7.584l0.256 0.416-0.352 0.384c-3.264 3.008-1.632 8.544 2.72 9.248l0.512 0.096v0.512c0.064 1.12 0.384 2.208 1.024 3.136 1.792 2.624 5.312 3.296 7.936 1.536 0.064-0.064 0.096-0.096 0.16-0.16l0.096-0.064 0.448-0.352 0.384 0.352c2.336 2.048 6.016 0.928 6.784-2.112l0.128-0.48h0.512c1.376 0.064 2.688-0.32 3.84-1.12 2.784-1.984 3.552-5.824 1.76-8.736l-0.288-0.48 0.416-0.352c2.080-1.76 1.344-5.152-1.216-5.952l-0.512-0.16 0.032-0.48c0.384-4.832-4.256-8.384-8.896-6.848l-0.32 0.096-0.256-0.224c-3.712-2.848-9.408-0.864-11.168 3.776zM17.696 7.328c1.216 0 1.696 1.024 1.888 0.992 0.416-0.032 1.696-0.64 3.168-0.16 1.888 0.64 2.784 2.816 2.496 4.48s-0.832 2.944-2.208 5.472c-0.48 0.864-0.32 1.472 0.864 0.928 0.896-0.448 2.080 0.32 2.080 1.28 0.032 1.408-2.304 2.592-3.52 2.88-1.44 0.32-3.648 0.032-4.288-1.76-0.384-1.056-0.224-2.176 0-2.816 0.224-0.928 1.92-4.192 1.536-4.736-0.416-0.864-1.536 2.336-2.528 5.056-0.352 0.96-0.704 2.368-2.368 2.24-0.448-0.032-0.928-0.384-1.216-0.768-0.992-1.44 0.928-4.992 1.216-6.208 0.192-0.896-0.672-1.024-1.088 0s-0.544 2.112-1.76 5.376c-0.192 0.512-0.64 1.312-1.12 1.888-0.832 0.992-2.112 1.152-2.912 0.896-1.696-0.544-2.336-2.4-1.792-4 0.224-0.704 1.888-6.080 2.56-7.52 0.576-1.248 1.6-4 4.64-3.040 0.544 0.192 1.536 0.672 1.76 0.768 0.512 0.224 1.248-1.312 2.592-1.248zM17.6 8.672c-0.128-0.032-0.288 0.064-0.608 0.32-0.064 0.064-0.48 0.416-0.64 0.512-0.544 0.416-1.12 0.576-1.792 0.256-0.512-0.256-1.248-0.576-1.6-0.704-1.152-0.352-1.792 0-2.432 1.12-0.096 0.192-0.192 0.384-0.32 0.608-0.064 0.16-0.256 0.576-0.288 0.64-0.192 0.448-0.576 1.536-1.088 3.008-0.064 0.224-0.064 0.224-0.128 0.48-0.256 0.768-0.544 1.568-0.8 2.432-0.16 0.512-0.288 0.96-0.448 1.44-0.32 1.056 0.064 2.048 0.928 2.336 0.448 0.128 1.12-0.032 1.472-0.48 0.352-0.416 0.736-1.088 0.896-1.504 0.416-1.152 0.736-2.048 0.992-2.912 0.128-0.416 0.448-1.536 0.512-1.728 0.096-0.288 0.16-0.512 0.256-0.768 0.384-0.928 1.152-1.6 2.112-1.568 1.216 0.096 1.792 1.216 1.504 2.368-0.064 0.256-0.16 0.576-0.32 1.024-0.064 0.128-0.352 0.928-0.448 1.152-0.16 0.416-0.288 0.768-0.384 1.12-0.32 1.024-0.352 1.696-0.256 1.856 0.096 0.128 0.256 0.224 0.224 0.224 0.416 0 0.544-0.096 0.8-0.736 0.032-0.128 0.256-0.704 0.224-0.64 0.064-0.192 0.16-0.416 0.288-0.832l0.128-0.288c0.576-1.632 0.96-2.528 1.312-3.264 0.224-0.544 0.48-0.928 0.736-1.184 0.736-0.736 1.888-0.704 2.464 0.256 0.544 0.864 0.32 1.536-0.544 3.648-0.064 0.16-0.064 0.16-0.128 0.32-0.768 1.856-0.704 1.6-0.768 1.888-0.192 0.608-0.224 1.312 0 1.92 0.288 0.832 1.504 1.216 2.72 0.928 1.184-0.256 2.528-1.216 2.496-1.568 0 0-0.16-0.128-0.16-0.128-1.12 0.544-2.112 0.608-2.752-0.384-0.48-0.736-0.32-1.504 0.16-2.368 1.28-2.368 1.76-3.552 2.016-5.088 0.224-1.152-0.512-2.592-1.6-2.944-0.512-0.16-1.056-0.16-1.696 0-0.096 0.032-0.448 0.128-0.416 0.128-0.224 0.032-0.384 0.064-0.544 0.096-0.448 0.032-0.736-0.096-1.024-0.352-0.096-0.064-0.128-0.128-0.224-0.224-0.16-0.16-0.192-0.192-0.256-0.224-0.16-0.16-0.288-0.192-0.576-0.192z"></path>
</svg>
