<!-- Generated by IcoMoon.io -->
<svg version="1.1" xmlns="http://www.w3.org/2000/svg" viewBox="0 0 32 32">
    <title>minus-circle-o</title>
    <path d="M16 30.816c-8.128 0-14.784-6.688-14.784-14.816s6.656-14.816 14.784-14.816 14.816 6.688 14.816 14.816-6.688 14.816-14.816 14.816zM16 27.872c6.528 0 11.872-5.344 11.872-11.872s-5.344-11.872-11.872-11.872-11.872 5.344-11.872 11.872 5.344 11.872 11.872 11.872zM8.928 17.472c-0.8 0-1.472-0.672-1.472-1.472s0.672-1.472 1.472-1.472h14.272c0.8 0 1.472 0.672 1.472 1.472s-0.672 1.472-1.472 1.472h-14.272z"></path>
</svg>
