<!-- Generated by IcoMoon.io -->
<svg version="1.1" xmlns="http://www.w3.org/2000/svg" viewBox="0 0 32 32">
    <title>paint-brush</title>
    <path d="M28.256 7.744c-2.912 5.6-4.928 8.64-5.984 9.728-0.544 0.512-1.344 1.312-2.528 1.6-0.416 0.128-0.288-0.8-1.6-2.016-1.088-1.056-2.144-0.8-2.144-1.472 0-0.256 0.256-1.6 1.344-2.912 1.056-1.216 3.712-3.872 8.128-7.872 0.256-0.256 2.272-2.4 3.456-1.344 1.216 1.088-0.512 3.872-0.672 4.288zM16.416 26.656c-1.472 1.472-3.36 2.144-5.76 2.144-1.312 0-2.528-0.256-3.584-0.8s-1.856-1.216-2.528-2.144-1.088-1.856-1.472-2.912c-0.256-1.088-0.416-2.272-0.416-3.616 0 0 1.472 1.472 2.816 1.728 4.8 0.672 5.728-5.984 10.784-3.712 1.088 0.512 2.56 1.984 2.4 5.056-0.128 1.728-1.6 3.584-2.24 4.256z"></path>
</svg>
