<!-- Generated by IcoMoon.io -->
<svg version="1.1" xmlns="http://www.w3.org/2000/svg" viewBox="0 0 32 32">
    <title>pencil</title>
    <path d="M28.544 10.4l-2.4 2.528c-0.288 0.256-0.672 0.256-0.928 0l-5.76-5.984c-0.256-0.288-0.256-0.672 0-0.96l2.4-2.528c0.96-1.056 2.56-1.056 3.616 0l3.072 3.2c1.056 1.088 1.056 2.688 0 3.744zM17.472 8.128l-13.728 14.272-1.088 6.656c-0.128 0.96 0.544 1.76 1.472 1.472l6.272-1.184 13.728-14.272c0.288-0.288 0.288-0.672 0-0.928l-5.728-6.016c-0.256-0.256-0.672-0.256-0.928 0zM9.056 21.184c-0.256-0.256-0.256-0.8 0-1.056l8-8.384c0.288-0.288 0.8-0.288 1.088 0 0.256 0.256 0.256 0.8 0 1.056l-8 8.384c-0.288 0.288-0.672 0.288-1.088 0v0zM7.2 25.856h2.528v2.016l-3.328 0.672-1.6-1.888 0.544-3.456h1.856v2.656z"></path>
</svg>
