<!-- Generated by IcoMoon.io -->
<svg version="1.1" xmlns="http://www.w3.org/2000/svg" viewBox="0 0 32 32">
    <title>plus-square-o</title>
    <path d="M27.744 4.256h-23.488v23.36h23.36v-23.36zM27.872 1.344c1.6 0 2.784 1.184 2.784 2.784v23.872c0 1.472-1.184 2.816-2.784 2.816h-23.744c-1.6-0.16-2.784-1.344-2.784-2.944v-23.744c0-1.6 1.184-2.784 2.784-2.784h23.744zM14.4 14.528v-5.6c0-0.8 0.672-1.472 1.472-1.472 0.928 0 1.472 0.544 1.472 1.472v5.6h5.6c0.8 0 1.472 0.672 1.472 1.472s-0.672 1.472-1.472 1.472h-5.6v5.6c0 0.8-0.672 1.472-1.472 1.472s-1.472-0.672-1.472-1.472v-5.6h-5.6c-0.8 0-1.472-0.672-1.472-1.472s0.672-1.472 1.472-1.472h5.6z"></path>
</svg>
