<!-- Generated by IcoMoon.io -->
<svg version="1.1" xmlns="http://www.w3.org/2000/svg" viewBox="0 0 32 32">
    <title>plus-circle</title>
    <path d="M3.328 8.672c1.344-2.272 3.072-4 5.344-5.344s4.672-1.984 7.328-1.984 5.056 0.64 7.328 1.984 4 3.072 5.344 5.344c1.344 2.272 1.984 4.672 1.984 7.328s-0.64 5.056-1.984 7.328c-1.344 2.272-3.072 4-5.344 5.344s-4.672 1.984-7.328 1.984-5.056-0.64-7.328-1.984c-2.272-1.344-4-3.072-5.344-5.344-1.312-2.272-1.984-4.672-1.984-7.328s0.672-5.056 1.984-7.328zM14.528 14.528h-5.6c-0.8 0-1.472 0.672-1.472 1.472s0.672 1.472 1.472 1.472h5.6v5.6c0 0.8 0.672 1.472 1.472 1.472s1.472-0.672 1.472-1.472v-5.6h5.6c0.8 0 1.472-0.672 1.472-1.472s-0.672-1.472-1.472-1.472h-5.6v-5.6c0-0.8-0.672-1.472-1.472-1.472s-1.472 0.672-1.472 1.472v5.6z"></path>
</svg>
