<!-- Generated by IcoMoon.io -->
<svg version="1.1" xmlns="http://www.w3.org/2000/svg" viewBox="0 0 32 32">
    <title>plus-circle-o</title>
    <path d="M16 30.816c-8.128 0-14.784-6.688-14.784-14.816s6.656-14.816 14.784-14.816 14.816 6.688 14.816 14.816-6.688 14.816-14.816 14.816zM16 27.872c6.528 0 11.872-5.344 11.872-11.872s-5.344-11.872-11.872-11.872-11.872 5.344-11.872 11.872 5.344 11.872 11.872 11.872zM14.528 14.528v-5.6c0-0.8 0.672-1.472 1.472-1.472s1.472 0.672 1.472 1.472v5.6h5.6c0.8 0 1.472 0.672 1.472 1.472s-0.672 1.472-1.472 1.472h-5.6v5.6c0 0.8-0.672 1.472-1.472 1.472s-1.472-0.672-1.472-1.472v-5.6h-5.6c-0.8 0-1.472-0.672-1.472-1.472s0.672-1.472 1.472-1.472h5.6z"></path>
</svg>
