<!-- Generated by IcoMoon.io -->
<svg version="1.1" xmlns="http://www.w3.org/2000/svg" viewBox="0 0 32 32">
    <title>plus-square</title>
    <path d="M30.656 6.784v18.4c0 1.472-0.512 2.816-1.6 3.872s-2.4 1.6-3.84 1.6h-18.4c-1.472 0-2.816-0.512-3.872-1.6s-1.6-2.4-1.6-3.872v-18.4c0-1.44 0.512-2.784 1.6-3.84s2.4-1.6 3.872-1.6h18.4c1.44 0 2.784 0.512 3.84 1.6s1.6 2.4 1.6 3.84zM14.4 14.528h-5.6c-0.8 0-1.472 0.672-1.472 1.472s0.672 1.472 1.472 1.472h5.6v5.6c0 0.8 0.672 1.472 1.472 1.472s1.472-0.672 1.472-1.472v-5.6h5.6c0.8 0 1.472-0.672 1.472-1.472s-0.672-1.472-1.472-1.472h-5.6v-5.6c0-0.8-0.672-1.472-1.472-1.472s-1.472 0.672-1.472 1.472v5.6z"></path>
</svg>
