<!-- Generated by IcoMoon.io -->
<svg version="1.1" xmlns="http://www.w3.org/2000/svg" viewBox="0 0 32 32">
    <title>redo</title>
    <path d="M21.728 8.256c-0.128 0-0.256-0.128-0.256-0.128-4.416-2.528-10.144-1.056-12.672 3.328s-1.056 10.016 3.328 12.544 10.016 1.056 12.672-3.328c0.544-0.928 1.6-1.216 2.528-0.672s1.216 1.6 0.672 2.528c-3.584 6.144-11.456 8.288-17.6 4.672s-8.384-11.456-4.8-17.728 11.456-8.288 17.6-4.672c0.544 0.256 0.8 0.544 1.216 0.8l0.128-0.128 1.856-1.888c0.544-0.512 1.472-0.128 1.472 0.672v6.272c0 0.544-0.416 0.928-0.928 0.928h-6.272c-0.8 0-1.216-0.928-0.672-1.472l1.728-1.728z"></path>
</svg>
