<!-- Generated by IcoMoon.io -->
<svg version="1.1" xmlns="http://www.w3.org/2000/svg" viewBox="0 0 32 32">
    <title>search-bold</title>
    <path d="M20.928 23.456c-1.984 1.472-4.384 2.272-6.912 2.272-6.56 0-11.744-5.184-11.744-11.744s5.184-11.712 11.744-11.712 11.712 5.184 11.712 11.712c0 2.688-0.8 5.088-2.272 6.944l5.216 5.216c0.672 0.64 0.672 1.728 0 2.4s-1.728 0.672-2.4 0l-5.344-5.088zM14.016 22.272c4.512 0 8.256-3.744 8.256-8.288s-3.744-8.256-8.256-8.256-8.288 3.744-8.288 8.256 3.744 8.288 8.288 8.288z"></path>
</svg>
