<!-- Generated by IcoMoon.io -->
<svg version="1.1" xmlns="http://www.w3.org/2000/svg" viewBox="0 0 32 32">
    <title>sign-out</title>
    <path d="M30.272 17.056l-9.728 9.6c-0.928 0.8-2.4 0.288-2.4-0.928v-5.6h-8c-0.8 0-1.344-0.672-1.344-1.344v-5.6c0-0.8 0.672-1.312 1.344-1.312h7.872v-5.6c0-1.216 1.44-1.888 2.4-0.928l9.728 9.728c0.672 0.512 0.672 1.312 0.128 1.984zM12.128 7.872h-5.312c-1.344 0-2.56 1.184-2.56 2.528v11.2c0 1.344 1.216 2.528 2.56 2.528h5.312c0.8 0 1.472 0.672 1.472 1.472s-0.672 1.472-1.472 1.472h-5.312c-3.072 0-5.472-2.4-5.472-5.472v-11.2c0-3.072 2.4-5.472 5.472-5.472h5.312c0.8 0 1.472 0.672 1.472 1.472s-0.672 1.472-1.472 1.472z"></path>
</svg>
