<!-- Generated by IcoMoon.io -->
<svg version="1.1" xmlns="http://www.w3.org/2000/svg" viewBox="0 0 32 32">
    <title>slideshow</title>
    <path d="M4.096 8h23.84c1.44 0 2.624 1.12 2.72 2.56l0.032 0.192v17.824c0 1.472-1.12 2.656-2.56 2.752l-0.192 0.032h-23.84c-1.472 0-2.656-1.12-2.752-2.56l-0.032-0.192v-17.856c0-1.472 1.12-2.656 2.56-2.752h0.224zM27.584 10.752h-23.168c-0.16 0-0.288 0.096-0.32 0.256v17.248c0 0.16 0.096 0.288 0.256 0.32h23.232c0.16 0 0.288-0.096 0.32-0.256l0.032-0.064v-17.152c0-0.192-0.16-0.352-0.352-0.352zM20.32 14.72l0.096 0.064 5.312 5.312v6.304h-19.456v-4.32l2.4-2.4c0.256-0.256 0.64-0.288 0.928-0.096l2.496 2.496 7.264-7.296c0.256-0.256 0.672-0.288 0.96-0.064v0zM8.576 13.024c1.248 0 2.272 1.056 2.272 2.304s-1.024 2.304-2.272 2.304-2.304-1.024-2.304-2.304 1.024-2.304 2.304-2.304zM26.656 4.256c0.736 0 1.344 0.608 1.344 1.344v1.344h-24v-1.344c0-0.736 0.608-1.344 1.344-1.344h21.312zM22.656 0.544c0.736 0 1.344 0.576 1.344 1.312v1.344h-16v-1.344c0-0.736 0.608-1.312 1.344-1.312h13.312z"></path>
</svg>
