<!-- Generated by IcoMoon.io -->
<svg version="1.1" xmlns="http://www.w3.org/2000/svg" viewBox="0 0 32 32">
    <title>sort-amount-desc</title>
    <path d="M8.416 23.072v0h2.656c0.8 0 1.184 0.928 0.672 1.472l-4.416 4.384c-0.384 0.416-0.928 0.416-1.184 0l-4.416-4.384c-0.512-0.544-0.128-1.472 0.672-1.472h2.656v-18.816c0-1.056 0.8-1.984 1.76-1.984s1.728 0.928 1.728 1.984v18.816zM15.616 13.984c-1.088 0-2.016-0.8-2.016-1.728s0.928-1.728 2.016-1.728h9.184c1.056 0 2.016 0.8 2.016 1.728s-0.96 1.728-2.016 1.728h-9.184zM15.616 20.672c-1.088 0-2.016-0.8-2.016-1.728s0.928-1.76 2.016-1.76h5.44c1.088 0 2.016 0.8 2.016 1.76s-0.928 1.728-2.016 1.728h-5.44zM15.616 27.328c-1.088 0-2.016-0.8-2.016-1.728s0.928-1.728 2.016-1.728h1.856c1.056 0 1.984 0.8 1.984 1.728s-0.928 1.728-1.984 1.728h-1.856zM15.616 7.328c-1.088 0-2.016-0.8-2.016-1.728s0.928-1.728 2.016-1.728h12.8c1.056 0 1.984 0.8 1.984 1.728s-0.928 1.728-1.984 1.728h-12.8z"></path>
</svg>
