<!-- Generated by IcoMoon.io -->
<svg version="1.1" xmlns="http://www.w3.org/2000/svg" viewBox="0 0 32 32">
    <title>spinner</title>
    <path d="M18.816 4.128c0 1.472-1.216 2.816-2.816 2.816s-2.784-1.344-2.784-2.816 1.312-2.784 2.784-2.784 2.816 1.184 2.816 2.784zM16 25.184c-1.472 0-2.784 1.216-2.784 2.816s1.312 2.656 2.784 2.656 2.816-1.184 2.816-2.784-1.344-2.688-2.816-2.688zM27.872 13.184c-1.472 0-2.816 1.216-2.816 2.816s1.216 2.784 2.816 2.784 2.784-1.312 2.784-2.784-1.184-2.816-2.784-2.816zM6.816 16c0-1.472-1.216-2.816-2.816-2.816s-2.656 1.344-2.656 2.816 1.184 2.784 2.784 2.784 2.688-1.312 2.688-2.784zM7.616 21.728c-1.472 0-2.816 1.216-2.816 2.816s1.216 2.784 2.816 2.784 2.784-1.184 2.784-2.784c-0.128-1.6-1.344-2.816-2.784-2.816zM24.416 21.728c-1.472 0-2.816 1.216-2.816 2.816s1.216 2.784 2.816 2.784 2.784-1.184 2.784-2.784c0-1.6-1.184-2.816-2.784-2.816zM7.616 4.8c-1.472 0-2.816 1.184-2.816 2.784s1.216 2.816 2.816 2.816 2.784-1.216 2.784-2.816-1.344-2.784-2.784-2.784z"></path>
</svg>
