<!-- Generated by IcoMoon.io -->
<svg version="1.1" xmlns="http://www.w3.org/2000/svg" viewBox="0 0 32 32">
    <title>star-o</title>
    <path d="M29.216 11.2l-8-1.216-3.616-7.584c-0.672-1.344-2.528-1.344-3.2 0l-3.584 7.584-8 1.216c-1.472 0.256-2.016 1.984-0.96 3.072l5.76 5.856-1.344 8.288c-0.256 1.44 1.344 2.656 2.528 1.856l7.2-3.872 7.2 3.872c1.344 0.672 2.816-0.416 2.528-1.856l-1.312-8.288 5.728-5.856c1.056-1.088 0.384-2.944-0.928-3.072v0zM21.472 19.2l1.344 7.872-6.816-3.744-6.784 3.744 1.312-7.872-5.472-5.6 7.616-1.216 3.328-7.040 3.456 7.2 7.616 1.184-5.6 5.472z"></path>
</svg>
