<!-- Generated by IcoMoon.io -->
<svg version="1.1" xmlns="http://www.w3.org/2000/svg" viewBox="0 0 32 32">
    <title>t-letter-bold</title>
    <path d="M29.6 1.344c0.576 0 1.056 0.448 1.056 1.056v6.272c0 0.576-0.448 1.056-1.056 1.056h-2.080c-0.576 0-1.056-0.48-1.056-1.056v-2.112h-7.84v19.904h2.592c0.576 0 1.056 0.48 1.056 1.056v2.112c0 0.576-0.448 1.056-1.056 1.056h-10.464c-0.576 0-1.056-0.48-1.056-1.056v-2.112c0-0.576 0.48-1.056 1.056-1.056h2.624v-19.904h-7.84v2.112c0 0.576-0.48 1.056-1.056 1.056h-2.080c-0.576 0-1.056-0.48-1.056-1.056v-6.272c0-0.576 0.448-1.056 1.056-1.056h27.2z"></path>
</svg>
