<!-- Generated by IcoMoon.io -->
<svg version="1.1" xmlns="http://www.w3.org/2000/svg" viewBox="0 0 32 32">
    <title>tags</title>
    <path d="M7.616 10.656c0.384-0.384 0.64-0.928 0.64-1.472 0-0.512-0.128-1.056-0.512-1.312s-0.8-0.544-1.344-0.544-1.056 0.128-1.344 0.544-0.512 0.8-0.512 1.312c0 0.544 0.128 1.088 0.512 1.344 0.416 0.416 0.8 0.544 1.344 0.544s0.928-0.128 1.216-0.416zM24.8 18.144c0 0.512-0.128 1.056-0.544 1.312l-7.584 7.616c-0.416 0.384-0.928 0.544-1.472 0.544s-1.056-0.16-1.344-0.544l-11.040-11.072c-0.416-0.416-0.672-0.928-0.96-1.6s-0.512-1.216-0.512-1.728v-6.4c0-0.544 0.128-0.928 0.512-1.344s0.8-0.544 1.344-0.544h6.4c0.544 0 1.216 0.16 1.856 0.416 0.8 0.128 1.216 0.544 1.6 0.928l11.072 11.072c0.416 0.256 0.672 0.8 0.672 1.344zM30.656 18.144c0 0.512-0.128 1.056-0.512 1.312l-7.616 7.616c-0.384 0.384-0.928 0.544-1.472 0.544-0.384 0-0.64-0.16-0.928-0.288-0.256-0.128-0.512-0.384-0.8-0.672l7.2-7.2c0.416-0.384 0.544-0.8 0.544-1.312 0-0.544-0.128-1.088-0.544-1.472l-11.072-11.072c-0.256-0.256-0.8-0.672-1.44-0.928-0.672-0.288-1.216-0.416-1.76-0.416h3.488c0.512 0 1.184 0.128 1.856 0.416 0.544 0.256 1.056 0.672 1.472 1.056l11.072 11.072c0.384 0.256 0.512 0.8 0.512 1.344z"></path>
</svg>
