<!-- Generated by IcoMoon.io -->
<svg version="1.1" xmlns="http://www.w3.org/2000/svg" viewBox="0 0 32 32">
    <title>text-align-center</title>
    <path d="M6.016 14.4c-1.088 0-2.016-0.8-2.016-1.728s0.928-1.728 2.016-1.728h19.84c1.216 0 2.016 0.8 2.016 1.728s-0.928 1.728-2.016 1.728h-19.84zM8.672 21.056c-1.056 0-2.016-0.8-2.016-1.728s0.96-1.728 2.016-1.728h14.656c1.088 0 2.016 0.8 2.016 1.728s-0.928 1.728-2.016 1.728h-14.656zM3.328 27.744c-1.056 0-1.984-0.8-1.984-1.76s0.928-1.728 1.984-1.728h25.344c1.056 0 1.984 0.8 1.984 1.728s-0.928 1.76-1.984 1.76h-25.344zM11.456 7.744c-1.184 0-2.112-0.8-2.112-1.76s0.928-1.728 2.112-1.728h9.088c1.184 0 2.112 0.8 2.112 1.728s-0.928 1.76-2.112 1.76h-9.088z"></path>
</svg>
