<!-- Generated by IcoMoon.io -->
<svg version="1.1" xmlns="http://www.w3.org/2000/svg" viewBox="0 0 32 32">
    <title>text-align-left</title>
    <path d="M3.328 14.4c-1.056 0-1.984-0.8-1.984-1.728s0.928-1.728 1.984-1.728h24c1.088 0 2.016 0.8 2.016 1.728s-0.928 1.728-2.016 1.728h-24zM3.328 21.056c-1.056 0-1.984-0.8-1.984-1.728s0.928-1.728 1.984-1.728h20c1.088 0 2.016 0.8 2.016 1.728s-0.928 1.728-2.016 1.728h-20zM3.328 27.744c-1.056 0-1.984-0.8-1.984-1.76s0.928-1.728 1.984-1.728h25.344c1.056 0 1.984 0.8 1.984 1.728s-0.928 1.76-1.984 1.76h-25.344zM3.328 7.744c-1.056 0-1.984-0.8-1.984-1.76s0.928-1.728 1.984-1.728h17.344c1.056 0 1.984 0.8 1.984 1.728s-0.928 1.76-1.984 1.76h-17.344z"></path>
</svg>
