<!-- Generated by IcoMoon.io -->
<svg version="1.1" xmlns="http://www.w3.org/2000/svg" viewBox="0 0 32 32">
    <title>text-align-right</title>
    <path d="M28.672 14.4h-24c-1.056 0-2.016-0.8-2.016-1.728s0.96-1.728 2.016-1.728h24c1.056 0 1.984 0.8 1.984 1.728s-0.928 1.728-1.984 1.728zM28.672 21.056h-20c-1.056 0-2.016-0.8-2.016-1.728s0.96-1.728 2.016-1.728h20c1.056 0 1.984 0.8 1.984 1.728s-0.928 1.728-1.984 1.728zM28.672 27.744h-25.344c-1.056 0-1.984-0.8-1.984-1.76s0.928-1.728 1.984-1.728h25.344c1.056 0 1.984 0.8 1.984 1.728s-0.928 1.76-1.984 1.76zM28.672 7.744h-17.344c-1.056 0-1.984-0.8-1.984-1.76s0.928-1.728 1.984-1.728h17.344c1.056 0 1.984 0.8 1.984 1.728s-0.928 1.76-1.984 1.76z"></path>
</svg>
