<!-- Generated by IcoMoon.io -->
<svg version="1.1" xmlns="http://www.w3.org/2000/svg" viewBox="0 0 32 32">
    <title>trash-o</title>
    <path d="M18.816 25.184h1.312c0.416 0 0.672-0.256 0.672-0.64v-12.416c0-0.384-0.256-0.672-0.672-0.672h-1.312c-0.416 0-0.672 0.288-0.672 0.672v12.416c0 0.256 0.384 0.64 0.672 0.64zM28 5.856h-4.544l-1.984-3.2c-0.544-0.8-1.344-1.312-2.272-1.312h-5.6c-0.928 0-1.728 0.512-2.272 1.312l-1.856 3.2h-4.544c-0.512 0-0.928 0.416-0.928 0.928v0.96c0 0.512 0.416 0.928 0.928 0.928h0.928v19.2c0 1.472 1.216 2.784 2.688 2.784h16c1.472 0 2.656-1.184 2.656-2.784v-19.2h0.8c0.544 0 0.928-0.416 0.928-0.928v-0.96c-0.128-0.512-0.512-0.928-0.928-0.928zM13.472 4.256c0-0.128 0.128-0.128 0.256-0.128h5.216c0.128 0 0.256 0 0.256 0.128l0.928 1.6h-7.584l0.928-1.6zM24.416 27.872h-16v-19.2h16v19.2zM12.672 25.184h1.344c0.384 0 0.64-0.256 0.64-0.64v-12.416c0-0.384-0.256-0.672-0.64-0.672h-1.344c-0.416 0-0.672 0.288-0.672 0.672v12.416c0 0.256 0.256 0.64 0.672 0.64z"></path>
</svg>
