<!-- Generated by IcoMoon.io -->
<svg version="1.1" xmlns="http://www.w3.org/2000/svg" viewBox="0 0 32 32">
    <title>undo</title>
    <path d="M10.4 8.256c0-0.128 0.128-0.128 0.256-0.256 4.416-2.528 10.144-1.056 12.672 3.328s1.088 10.016-3.328 12.672-9.984 1.056-12.672-3.328c-0.512-0.928-1.6-1.216-2.528-0.672s-1.184 1.6-0.672 2.528c3.616 6.144 11.488 8.288 17.6 4.672s8.288-11.456 4.672-17.6-11.328-8.416-17.6-4.8c-0.384 0.256-0.8 0.544-1.056 0.8l-2.016-2.016c-0.512-0.512-1.472-0.128-1.472 0.544v6.272c0 0.544 0.416 0.928 0.96 0.928h6.24c0.8 0 1.216-0.928 0.672-1.472l-1.728-1.6z"></path>
</svg>
