<!-- Generated by IcoMoon.io -->
<svg version="1.1" xmlns="http://www.w3.org/2000/svg" viewBox="0 0 32 32">
    <title>user-circle-o</title>
    <path d="M10.016 25.344c1.728 1.056 3.84 1.728 5.984 1.728 2.272 0 4.256-0.672 6.016-1.728-0.672-0.8-1.472-1.472-2.272-2.016-1.088-0.672-2.4-0.928-3.744-0.928-2.4 0-4.672 1.056-5.984 2.944zM7.328 23.072c2.144-2.528 5.216-4.128 8.672-4.128 1.856 0 3.744 0.512 5.472 1.44 1.184 0.672 2.272 1.6 3.2 2.688 1.6-1.888 2.528-4.416 2.528-7.072 0-6.144-4.928-11.2-11.2-11.2s-11.2 5.056-11.2 11.2c0 2.656 1.056 5.184 2.528 7.072zM16 30.656c-8.128 0-14.656-6.528-14.656-14.656s6.528-14.656 14.656-14.656 14.656 6.528 14.656 14.656-6.528 14.656-14.656 14.656zM16 18.4c-3.2 0-5.728-2.528-5.728-5.728s2.528-5.728 5.728-5.728 5.728 2.528 5.728 5.728-2.528 5.728-5.728 5.728zM16 14.944c1.216 0 2.272-1.088 2.272-2.272s-1.056-2.272-2.272-2.272-2.272 1.056-2.272 2.272 1.088 2.272 2.272 2.272z"></path>
</svg>
