<!-- Generated by IcoMoon.io -->
<svg version="1.1" xmlns="http://www.w3.org/2000/svg" viewBox="0 0 32 32">
    <title>warning</title>
    <path d="M17.216 5.984c-0.16-0.256-0.288-0.384-0.544-0.512-0.672-0.288-1.472-0.128-1.856 0.512l-11.872 20.672c-0.128 0.288-0.128 0.416-0.128 0.672 0 0.8 0.512 1.344 1.312 1.344h23.744c0.256 0 0.384 0 0.672-0.128 0.672-0.416 0.8-1.216 0.512-1.888l-11.84-20.672zM18.272 5.344l11.872 20.64c0.8 1.344 0.256 2.944-0.928 3.616-0.416 0.256-0.8 0.416-1.344 0.416h-23.744c-1.472 0-2.656-1.216-2.656-2.688 0-0.384 0.128-0.928 0.384-1.344l11.872-20.64c0.8-1.344 2.4-1.76 3.616-0.96 0.384 0.288 0.8 0.544 0.928 0.96zM14.4 19.744l-0.256-4.544c0-0.928-0.128-1.472-0.128-1.856 0-0.672 0.128-1.088 0.512-1.472 0.416-0.416 0.8-0.544 1.344-0.544 0.8 0 1.184 0.416 1.472 0.8 0.256 0.416 0.256 0.928 0.256 1.728 0 0.416 0 0.8-0.128 1.344l-0.416 4.672c0 0.512-0.128 1.056-0.256 1.312-0.256 0.416-0.544 0.672-1.056 0.672-0.544 0-0.8-0.256-1.088-0.672-0.128-0.384-0.256-0.8-0.256-1.44zM15.744 23.328c0.512 0 0.928 0.128 1.312 0.544 0.416 0.384 0.544 0.8 0.544 1.184 0 0.544-0.128 0.928-0.544 1.344-0.384 0.256-0.8 0.384-1.184 0.384-0.544 0-0.928-0.128-1.216-0.384-0.384-0.256-0.512-0.8-0.512-1.344 0-0.512 0.128-0.928 0.512-1.184 0.16-0.416 0.672-0.544 1.088-0.544z"></path>
</svg>
