<!-- Generated by IcoMoon.io -->
<svg version="1.1" xmlns="http://www.w3.org/2000/svg" viewBox="0 0 32 32">
    <title>wordpress</title>
    <path d="M3.456 16.128c0-1.728 0.416-3.456 1.088-5.056l5.984 16.384c-2.112-0.928-3.872-2.528-5.184-4.512-1.344-2.016-1.888-4.288-1.888-6.816zM24.544 15.584c0 0.288 0 0.416 0 0.672s-0.128 0.544-0.128 0.8c-0.16 0.288-0.16 0.544-0.16 0.672s-0.256 0.416-0.384 0.928c-0.128 0.544-0.256 0.8-0.256 0.928l-1.216 4.16-4.672-13.472c0.544 0 0.928-0.128 1.472-0.128 0.256 0 0.416-0.16 0.416-0.288 0.128-0.128 0-0.384 0-0.512-0.16-0.16-0.288-0.288-0.416-0.288l-3.456 0.288c-0.8 0-1.888 0-3.328-0.16-0.16 0-0.288 0-0.416 0.16 0 0 0 0-0.128 0.128 0 0.128 0 0.128 0 0.256s0 0.128 0.128 0.256 0.128 0.16 0.256 0.16l1.344 0.128 2.016 5.312-2.816 8.288-4.544-13.6c0.544 0 0.96-0.128 1.472-0.128 0.288 0 0.416-0.16 0.416-0.288 0.128-0.128 0-0.384 0-0.512-0.128-0.16-0.288-0.288-0.544-0.16l-3.328 0.16c0 0-0.128 0-0.416 0s-0.256 0-0.384 0c1.184-1.76 2.656-3.072 4.544-4.16s3.84-1.44 5.984-1.44c1.6 0 3.2 0.256 4.544 0.928s2.784 1.312 3.872 2.4h-0.16c-0.64 0-1.056 0.256-1.44 0.672-0.416 0.384-0.672 0.928-0.672 1.6 0 0.128 0 0.256 0 0.384s0 0.256 0 0.416c0 0.128 0 0.256 0.128 0.384 0 0.128 0.128 0.256 0.128 0.416s0.128 0.256 0.128 0.384c0.128 0.128 0.128 0.256 0.288 0.416 0 0 0.128 0.128 0.256 0.384 0.128 0.128 0.128 0.256 0.256 0.416 0.8 0.64 1.216 1.856 1.216 3.040zM16.256 17.344l3.872 10.528c0 0 0 0.128 0.128 0.128-1.312 0.544-2.784 0.672-4.128 0.672-1.184 0-2.4-0.128-3.584-0.544l3.712-10.784zM27.072 10.144c1.056 1.856 1.6 3.84 1.6 5.984 0 2.272-0.544 4.416-1.728 6.272s-2.688 3.456-4.544 4.544l3.872-11.072c0.672-1.888 0.928-3.328 0.928-4.544-0.128-0.384-0.128-0.8-0.128-1.184zM10.272 2.656c1.856-0.8 3.744-1.184 5.728-1.184s3.872 0.384 5.728 1.184 3.328 1.888 4.672 3.072c1.344 1.344 2.4 2.944 3.072 4.672 0.8 1.856 1.184 3.744 1.184 5.728s-0.384 3.872-1.184 5.728c-0.8 1.888-1.856 3.328-3.072 4.672-1.344 1.344-2.944 2.4-4.672 3.072s-3.712 1.216-5.728 1.216-3.872-0.416-5.728-1.216-3.328-1.856-4.672-3.072c-1.344-1.344-2.4-2.944-3.072-4.672-0.8-1.728-1.184-3.712-1.184-5.728s0.384-3.872 1.184-5.728 1.888-3.328 3.072-4.672 2.944-2.272 4.672-3.072zM10.528 29.056c1.728 0.8 3.616 1.088 5.472 1.088s3.744-0.416 5.472-1.088c1.728-0.8 3.2-1.728 4.544-2.912 1.184-1.216 2.24-2.816 2.912-4.544 0.8-1.728 1.088-3.616 1.088-5.472s-0.416-3.744-1.088-5.472c-0.8-1.728-1.728-3.2-2.912-4.512-1.216-1.216-2.816-2.272-4.544-2.944-1.728-0.8-3.616-1.056-5.472-1.056s-3.744 0.384-5.472 1.184-3.2 1.728-4.384 2.944-2.272 2.784-3.072 4.512-1.056 3.616-1.056 5.472 0.384 3.744 1.056 5.472 1.728 3.2 2.944 4.544c1.312 1.056 2.784 1.984 4.512 2.784z"></path>
</svg>
