<!-- Generated by IcoMoon.io -->
<svg version="1.1" xmlns="http://www.w3.org/2000/svg" viewBox="0 0 32 32">
    <title>wrench</title>
    <path d="M20.128 16.672l-12 12c-1.312 1.344-3.456 1.344-4.672 0s-1.312-3.488 0-4.672l12-12c-0.8-2.528-0.256-5.472 1.76-7.456 2.112-2.144 5.184-2.688 7.712-1.76 0.128 0 0.416 0.16 0.288 0.288-0.16 0.128-0.16 0.128-0.16 0.128-0.928 0.928-2.4 2.4-4.256 4.256 0.544 1.888 0.8 2.944 0.928 2.944s1.088 0.384 2.944 0.928c1.856-1.984 3.2-3.328 4.128-4.256 0.128-0.128 0.128-0.128 0.128-0.128s0.128 0.128 0.288 0.256c1.056 2.656 0.384 5.728-1.6 7.872-2.016 1.856-4.96 2.4-7.488 1.6zM4.928 27.2c0.544 0.544 1.344 0.544 1.888 0 0.512-0.544 0.512-1.344 0-1.856s-1.344-0.544-1.888 0c-0.512 0.384-0.512 1.312 0 1.856z"></path>
</svg>
