<!-- Generated by IcoMoon.io -->
<svg version="1.1" xmlns="http://www.w3.org/2000/svg" viewBox="0 0 32 32">
    <title>zoom-out-bold</title>
    <path d="M24 21.856l6.272 6.272c0.544 0.544 0.544 1.6 0 2.144s-1.6 0.672-2.144 0l-6.272-6.272c-2.112 1.728-4.8 2.656-7.84 2.656-6.944 0-12.672-5.728-12.672-12.672s5.728-12.64 12.672-12.64 12.64 5.728 12.64 12.64c0 2.944-1.056 5.6-2.656 7.872zM9.472 12.544h8.928c0.8 0 1.472 0.64 1.472 1.6 0 0.8-0.672 1.44-1.472 1.44h-8.928c-0.8 0-1.472-0.64-1.472-1.44 0-0.96 0.672-1.6 1.472-1.6zM14.016 23.584c5.312 0 9.6-4.256 9.6-9.6s-4.288-9.6-9.6-9.6-9.6 4.288-9.6 9.6 4.256 9.6 9.6 9.6z"></path>
</svg>
