<!-- Generated by IcoMoon.io -->
<svg version="1.1" xmlns="http://www.w3.org/2000/svg" viewBox="0 0 32 32">
    <title>zoom-in-bold</title>
    <path d="M12.416 12.256v-2.272c0-0.928 0.8-1.728 1.728-1.728s1.728 0.8 1.728 1.728v2.272h2.272c0.928 0 1.728 0.8 1.728 1.728s-0.8 1.76-1.728 1.76h-2.272v2.24c0 0.96-0.8 1.76-1.728 1.76s-1.728-0.8-1.728-1.76v-2.24h-2.272c-0.928 0-1.728-0.8-1.728-1.76s0.8-1.728 1.728-1.728h2.272zM20.928 23.456c-1.984 1.472-4.384 2.272-6.912 2.272-6.56 0-11.744-5.184-11.744-11.744s5.184-11.712 11.744-11.712 11.712 5.184 11.712 11.712c0 2.688-0.8 5.088-2.272 6.944l5.216 5.216c0.672 0.64 0.672 1.728 0 2.4s-1.728 0.672-2.4 0l-5.344-5.088zM14.016 22.272c4.512 0 8.256-3.744 8.256-8.288s-3.744-8.256-8.256-8.256-8.288 3.744-8.288 8.256 3.744 8.288 8.288 8.288z"></path>
</svg>
