<svg width="256" height="256" viewBox="0 0 256 256" fill="none" xmlns="http://www.w3.org/2000/svg">
<rect width="256" height="256" fill="#4B4747"/>
<path d="M92.8 40C88.1321 40 83.6555 41.8543 80.3549 45.1549C77.0542 48.4556 75.2 52.9322 75.2 57.6V139.733C75.2 144.401 77.0542 148.878 80.3549 152.178C83.6555 155.479 88.1321 157.333 92.8 157.333H198.4C203.068 157.333 207.544 155.479 210.845 152.178C214.146 148.878 216 144.401 216 139.733V81.0667C216 76.3989 214.146 71.9222 210.845 68.6216C207.544 65.3209 203.068 63.4667 198.4 63.4667H153.895L130.429 40H92.8Z" fill="#38EEB9" fill-opacity="0.8"/>
<path d="M180.8 169.067H92.8C85.0203 169.067 77.5593 165.976 72.0582 160.475C66.5571 154.974 63.4667 147.513 63.4667 139.733V98.6666H57.6C52.9322 98.6666 48.4556 100.521 45.1549 103.822C41.8543 107.122 40 111.599 40 116.267V198.4C40 203.068 41.8543 207.544 45.1549 210.845C48.4556 214.146 52.9322 216 57.6 216H163.2C167.868 216 172.344 214.146 175.645 210.845C178.946 207.544 180.8 203.068 180.8 198.4V169.067Z" fill="#38EEB9" fill-opacity="0.8"/>
</svg>
